<svg height="496pt" viewBox="0 0 496 496" width="496pt" xmlns="http://www.w3.org/2000/svg"><path d="m456 160v264h-416v-264h-40v304h208.808594c3.71875 18.230469 19.871094 32 39.191406 32s35.480469-13.769531 39.191406-32h208.808594v-304zm0 0" fill="#f0bc5e"/><path d="m344 128v-48h-48c-13.230469 0-24-10.769531-24-24v-32c0-13.230469 10.769531-24 24-24h144c13.230469 0 24 10.769531 24 24v32c0 13.230469-10.769531 24-24 24h-36.6875zm0 0" fill="#f0bc5e"/><path d="m384 112v16h64v274.007812c-21.488281-21.496093-50.625-34.007812-81.6875-34.007812h-28.625c-31.0625 0-60.199219 12.511719-81.6875 34.007812v-234.007812c0-22.054688 17.945312-40 40-40h32v-16h-32c-20.382812 0-38.199219 10.984375-48 27.304688-8.847656-14.738282-24.230469-25.128907-42.152344-26.992188-7.144531-53.695312-30.808594-88.886719-42.007812-102.863281-4.808594-6-12.039063-9.449219-19.839844-9.449219s-15.03125 3.449219-19.839844 9.449219c-11.175781 13.941406-34.769531 49.03125-41.96875 102.550781h-50.191406v320h432v-320zm-46.3125 272h28.625c28.046875 0 54.3125 11.808594 73.03125 32h-174.6875c18.71875-20.191406 44.984375-32 73.03125-32zm-201.039062-364.550781c3.503906-4.386719 11.191406-4.386719 14.703124 0 12.222657 15.246093 40.648438 57.910156 40.648438 124.550781 0 72.289062-28.054688 92.558594-33.910156 96h-6.089844v-36l28.800781-21.601562-9.601562-12.796876-19.199219 14.398438v-20l28.800781-21.601562-9.601562-12.796876-19.199219 14.398438v-20l28.800781-21.601562-9.601562-12.796876-19.199219 14.398438v-56h-16v56l-19.199219-14.398438-9.601562 12.796876 28.800781 21.601562v20l-19.199219-14.398438-9.601562 12.796876 28.800781 21.601562v20l-19.199219-14.398438-9.601562 12.796876 28.800781 21.601562v36h-6.0625c-6.050781-3.566406-33.9375-23.9375-33.9375-96 0-66.640625 28.425781-109.304688 40.648438-124.550781zm-56.074219 108.550781c-.335938 5.199219-.574219 10.496094-.574219 16 0 92.351562 43.191406 110.6875 45.023438 111.433594l1.441406.566406h9.535156v48l-19.199219-14.398438-9.601562 12.796876 36.800781 27.601562 36.800781-27.601562-9.601562-12.796876-19.199219 14.398438v-48h9.535156l1.433594-.566406c1.839844-.746094 45.03125-19.082032 45.03125-111.433594 0-5.230469-.207031-10.289062-.519531-15.238281 18.488281 3.519531 32.519531 19.742187 32.519531 39.238281v234.007812c-21.488281-21.496093-50.625-34.007812-81.6875-34.007812h-28.625c-31.0625 0-60.199219 12.511719-81.6875 34.007812v-274.007812zm150.769531 288h-174.6875c18.71875-20.191406 44.984375-32 73.03125-32h28.625c28.046875 0 54.3125 11.808594 73.03125 32zm0 0"/><path d="m352 144c-39.695312 0-72 32.304688-72 72s32.304688 72 72 72 72-32.304688 72-72-32.304688-72-72-72zm0 128c-30.878906 0-56-25.121094-56-56s25.121094-56 56-56 56 25.121094 56 56-25.121094 56-56 56zm0 0"/><path d="m304 32h128v16h-128zm0 0"/><path d="m272 336h160v16h-160zm0 0"/><path d="m272 304h160v16h-160zm0 0"/><path d="m64 336h160v16h-160zm0 0"/></svg>